<?xml version="1.0" standalone="no"?>
<!DOCTYPE svg PUBLIC "-//W3C//DTD SVG 20010904//EN"
 "http://www.w3.org/TR/2001/REC-SVG-20010904/DTD/svg10.dtd">
<svg version="1.0" xmlns="http://www.w3.org/2000/svg"
 width="1200.000000pt" height="1200.000000pt" viewBox="0 0 1200.000000 1200.000000"
 preserveAspectRatio="xMidYMid meet">

<g transform="translate(0.000000,1200.000000) scale(0.100000,-0.100000)"
fill="#000000" stroke="none">
<path d="M5865 11653 c-666 -1650 -893 -2188 -1218 -2891 -42 -89 -79 -171
-82 -183 -6 -17 19 -47 137 -167 445 -454 837 -794 1276 -1107 62 -44 108 -81
104 -83 -5 -1 -76 26 -158 62 -606 261 -1082 533 -1457 833 -44 35 -82 63 -85
63 -4 0 -128 -246 -277 -547 -750 -1519 -1841 -3560 -3630 -6788 -238 -429
-438 -790 -444 -803 -15 -29 -51 -47 329 168 1513 856 2682 1381 3715 1669
151 42 460 116 573 137 57 11 92 23 92 30 0 7 -6 43 -14 81 -47 224 -61 371
-61 678 0 314 7 399 51 642 127 708 471 1260 917 1474 125 59 220 81 362 82
123 1 194 -10 300 -45 309 -105 598 -400 795 -811 82 -172 108 -237 153 -387
154 -510 187 -1121 88 -1638 -13 -66 -15 -95 -7 -97 6 -2 67 -16 136 -30 1118
-236 2436 -799 4180 -1785 162 -92 305 -172 318 -179 21 -11 21 -8 -12 56 -19
37 -246 456 -503 930 l-468 861 -265 213 c-340 274 -499 396 -657 511 -298
214 -653 436 -981 612 -90 49 -161 90 -159 92 9 9 426 -112 655 -191 291 -99
621 -242 843 -364 68 -38 126 -67 128 -65 2 2 -240 459 -537 1016 -1438 2698
-2234 4267 -2857 5633 -170 371 -469 1059 -795 1828 -189 444 -346 807 -350
807 -4 0 -64 -143 -135 -317z"/>
</g>
</svg>
